# xmcd
#
# Track frame offsets:
#	150
#	22349
#	43054
#	62986
#	80548
#	95272
#	115669
#	132165
#	149879
#	170853
#	192372
#	207188
#
# Disc length: 2943 seconds
# Revision: 0
# Processed by: cddbd v1.5.2PL0 Copyright (c) Steve Scherf et al.
# Submitted via: dBpowerAMP V12.0
#
DISCID=b90b7d0c
DTITLE=Glenn Cardier - Stranger Than Fiction
DYEAR=2012
DGENRE=Blues
TTITLE0=Signs And Wonders
TTITLE1=Stop Me (If You've Heard This One Before)
TTITLE2=Hollywood
TTITLE3=As If By Magic
TTITLE4=Jump Jump
TTITLE5=Master Of Disguise
TTITLE6=Abducted By Aliens
TTITLE7=Comedy Of Errors
TTITLE8=Little Richard 1957
TTITLE9=Burnin' Me Up
TTITLE10=Weary Bones
TTITLE11=Odd One Out
EXTD=
EXTT0=
EXTT1=
EXTT2=
EXTT3=
EXTT4=
EXTT5=
EXTT6=
EXTT7=
EXTT8=
EXTT9=
EXTT10=
EXTT11=
PLAYORDER=
